<svg width="128" height="128" viewBox="0 0 128 128" fill="none" xmlns="http://www.w3.org/2000/svg">
<path d="M64.556 51.492C64.1952 51.492 63.8343 51.6294 63.5594 51.9043C63.0295 52.4342 63.0121 53.2826 63.5038 53.8355L29.6768 73.0635L29.7129 73.1242C31.8699 76.7672 34.5041 80.1077 37.7679 83.0477L37.82 83.0947L37.8664 83.0423L63.6124 53.9453C64.165 54.4455 65.02 54.4307 65.5528 53.8978C66.1025 53.3481 66.1025 52.4547 65.5528 51.905C65.2779 51.6302 64.9167 51.492 64.556 51.492ZM64.556 51.6301C64.8809 51.6301 65.2057 51.7542 65.454 52.0025C65.9507 52.4991 65.9507 53.3023 65.454 53.7989C64.9574 54.2955 64.1542 54.2955 63.6576 53.7989C63.161 53.3022 63.161 52.4991 63.6576 52.0025C63.9059 51.7542 64.231 51.6301 64.556 51.6301ZM112.895 52.0565V52.1953H114.445V83.1063H112.895V83.2452H116.134V83.1063H114.584V52.1953H116.134V52.0565H112.895ZM19.224 52.5694L19.1545 52.5724H19.1515C19.128 52.5734 19.1045 52.5746 19.081 52.5759L19.0156 52.5797V56.6941L19.0924 56.686C19.1129 56.6838 19.1338 56.6824 19.1545 56.6822C19.5117 56.6823 19.8001 56.9705 19.8001 57.3277C19.8001 57.685 19.512 57.9731 19.1548 57.9733C19.1338 57.9732 19.1127 57.9721 19.0918 57.97L19.0156 57.9624V62.0776L19.0821 62.0806C19.1056 62.0815 19.1291 62.0824 19.1526 62.083H19.1545C21.78 62.083 23.9099 59.9532 23.9099 57.3277C23.91 54.726 21.8167 52.6175 19.224 52.5794L19.224 52.5694ZM19.1556 52.7112C21.7055 52.7118 23.771 54.7776 23.771 57.3277C23.7711 59.878 21.7053 61.9439 19.1551 61.9442C19.155 61.9442 19.1552 61.9442 19.1551 61.9442L19.1546 58.1121C19.587 58.1121 19.939 57.7601 19.939 57.3277C19.939 56.8953 19.587 56.5433 19.1546 56.5433V52.7115C19.155 52.7115 19.1552 52.7113 19.1556 52.7112ZM79.1356 52.9027V52.9062C77.7537 52.9434 76.6426 54.074 76.6426 55.4648C76.6426 56.8556 77.7537 57.9862 79.1356 58.0234V71.6194C79.1336 71.6194 79.1316 71.6191 79.1296 71.6191C77.7153 71.6191 76.5675 72.767 76.5675 74.1812C76.5675 75.5955 77.7154 76.7436 79.1296 76.7436C80.5439 76.7436 81.692 75.5955 81.692 74.1812C81.692 72.8159 80.621 71.702 79.2745 71.6264V58.0234C80.6564 57.9862 81.7672 56.8556 81.7672 55.4648C81.7672 54.074 80.6564 52.9434 79.2745 52.9062V52.9027L79.1356 52.9027ZM79.1356 53.0451V57.8845C77.8289 57.8475 76.7815 56.7805 76.7815 55.4648C76.7815 54.149 77.8288 53.0821 79.1356 53.0451ZM79.2745 53.0451C80.5812 53.0822 81.6283 54.1491 81.6283 55.4648C81.6283 56.7806 80.5812 57.8475 79.2745 57.8845V53.0451ZM63.2585 54.1347L37.8105 82.8947C34.6005 79.9927 32.0026 76.7013 29.8703 73.1122L63.2585 54.1347ZM32.1725 54.988V58.2269H32.3113V56.677H38.8761V58.2269H39.015V54.988H38.8761V56.5381H32.3113V54.988H32.1725ZM57.0665 67.693V67.8319H58.6166V77.9009H57.0665V78.0398H60.3054V77.9009H58.7555V67.8319H60.3054V67.693H57.0665ZM79.1295 71.7575C79.1315 71.7575 79.1335 71.7578 79.1355 71.7578V76.604C79.1335 76.604 79.1315 76.6043 79.1295 76.6043C77.7903 76.6043 76.7063 75.52 76.7063 74.1808C76.7063 72.8416 77.7903 71.7575 79.1295 71.7575ZM79.2743 71.7648C80.5456 71.84 81.553 72.8904 81.553 74.1807C81.553 75.471 80.5456 76.5217 79.2743 76.5969V71.7648ZM92.5173 72.2004V75.4393H92.6562V73.8892H104.679V75.4393H104.818V72.2004H104.679V73.7503H92.6562V72.2004H92.5173Z" fill="white"/>
<path d="M81.067 45.112C80.9675 45.1111 80.8686 45.1116 80.7703 45.1131C79.255 45.1371 76.0084 45.1311 73.1008 46.4471C70.1932 47.7631 67.6367 50.4906 67.6367 55.6947C67.6367 57.8945 68.3713 59.7957 69.5234 61.4246H46.3124V50.9136H61.5504V45.5629H40.1854V50.9136H40.187V61.4246H40.1854V66.7756H40.187V79.2316L36.6072 79.2102L31.6533 79.233L23.8983 67.185C25.716 66.4354 27.4949 65.3571 28.8641 63.8463C30.3533 62.2031 31.3505 60.0561 31.3505 57.3995V56.6354C31.3505 52.7479 29.868 49.9592 27.4504 48.1812C25.0328 46.4032 21.7257 45.6174 18.0498 45.5336H6.24976V50.9448H6.27991V63.6528H6.24981V68.7041H6.27991V84.5581H12.4055V68.6881L18.5659 68.6707L27.0234 82.4297L27.0353 82.4457C27.7515 83.3942 29.2401 85.5 31.6458 87.0166L31.8495 87.1452L36.7112 84.5812L40.6048 84.5579H61.5488V78.997H46.3118V66.775H76.4408C76.4519 66.7802 76.4602 66.7842 76.472 66.7896C78.3385 67.643 80.604 68.4152 82.3676 69.5278C84.1312 70.6403 85.3645 72.0166 85.3645 74.2031C85.3645 76.5565 84.3026 77.7888 82.8056 78.5367C81.3086 79.2846 79.3522 79.4698 77.7416 79.4698H77.7388C74.6518 79.4889 71.0207 78.1774 67.92 77.142L67.3716 76.9589V82.8423L67.6154 82.9535C70.6588 84.3409 75.1668 84.8824 77.7504 84.7841C79.6035 84.7831 82.9879 84.4203 85.9754 82.925C88.9669 81.4278 91.5599 78.7155 91.5599 74.2031C91.5599 70.7111 90.2455 68.2073 88.4065 66.4153C86.5675 64.6234 84.224 63.5241 82.1314 62.7088L82.1301 62.7082C81.3364 62.4022 79.8311 61.8011 78.3344 60.9864C76.84 60.173 75.3625 59.1328 74.6241 58.0424C74.1646 57.2965 73.8812 56.4656 73.8315 55.6807C73.8359 53.3013 74.9449 52.0181 76.3811 51.2611C77.8202 50.5027 79.6127 50.3418 80.783 50.4263C83.1384 50.5963 87.1961 51.9251 88.494 52.4793L88.9071 52.6556L89.5079 50.8907H105.752V84.5577H111.878V50.8907H122.889V45.5869H111.878V45.5633H105.752V45.5869H84.5849C83.4093 45.303 82.2276 45.1218 81.0661 45.1114L81.067 45.112ZM81.0594 45.9453C82.1592 45.9552 83.3002 46.1278 84.4491 46.4088L84.4979 46.4207H106.587V46.3971H111.046V46.4207H122.057V50.058H111.046V83.725H106.587V50.058H88.9129L88.4035 51.555C86.7662 50.9055 83.2487 49.7693 80.8449 49.5958C79.5442 49.502 77.6371 49.6588 75.9943 50.5246C74.3516 51.3904 72.999 53.0351 72.999 55.6947V55.7071L72.9999 55.7199C73.0574 56.6736 73.3925 57.6339 73.9221 58.4903L73.9264 58.4974L73.931 58.5042C74.8135 59.8116 76.3864 60.8744 77.9377 61.7189C79.4891 62.5634 81.0266 63.1758 81.8316 63.4863C83.8827 64.2855 86.1203 65.3501 87.8265 67.0127C89.5331 68.6756 90.7282 70.9174 90.7282 74.2038C90.7282 78.4035 88.4156 80.7734 85.604 82.1806C82.7923 83.5878 79.4823 83.9521 77.7432 83.9521H77.7351L77.7272 83.9524C75.3703 84.0431 71.0469 83.5105 68.2065 82.2927V78.117C71.1754 79.1183 74.6124 80.3232 77.746 80.3037C79.4163 80.3035 81.4782 80.1329 83.1797 79.2828C84.8821 78.4322 86.1994 76.8231 86.1994 74.2039C86.1994 71.6942 84.7002 70.0136 82.8138 68.8236C80.9274 67.6336 78.6252 66.8578 76.8202 66.0326C76.7886 66.0181 76.7519 66.0004 76.71 65.981L76.6268 65.9425H45.4798V79.8305H60.7168V83.7249H40.6028L36.503 83.7493L31.8968 86.1785C29.7799 84.7819 28.4292 82.9087 27.7124 81.9586L19.0314 67.8366L11.5729 67.8572V83.7252H7.11367V67.8712H7.08357V64.4864H7.11367V50.1114H7.08357V46.3667H18.0316C21.5993 46.448 24.7392 47.221 26.9575 48.8523C29.1758 50.4837 30.518 52.9551 30.518 56.6352V57.3993C30.518 59.8498 29.6204 61.7716 28.2475 63.2865C26.8746 64.8014 25.0159 65.8969 23.1279 66.6113L22.6481 66.7929C25.5109 71.21 28.3516 75.6416 31.2005 80.0679L36.6074 80.043L41.021 80.0693V65.9423H41.0194V62.2578H41.021V50.0798H41.0194V46.3956H60.7184V50.0798H45.4804V62.2578H71.2064L70.6473 61.5767C69.2985 59.9336 68.4706 57.999 68.4706 55.6946C68.4706 50.7555 70.7524 48.4245 73.4448 47.2059C76.1372 45.9873 79.2523 45.9705 80.784 45.9463C80.8762 45.9448 80.9675 45.9445 81.0594 45.9453ZM11.5724 50.1118V64.4868H16.6288C18.755 64.4868 20.9903 64.1747 22.7417 63.12C24.4931 62.0653 25.7153 60.2196 25.7153 57.4001V56.636C25.7153 53.7812 24.1116 52.0824 22.3791 51.1847C20.6466 50.2869 18.8014 50.1122 18.0404 50.1122L11.5724 50.1118ZM12.4056 50.945H18.0403C18.6607 50.945 20.4445 51.12 21.9958 51.9239C23.5471 52.7278 24.882 54.0826 24.882 56.6356V57.3997C24.882 59.988 23.8532 61.4774 22.3117 62.4057C20.7702 63.334 18.6708 63.6531 16.6287 63.6531H12.4055L12.4056 50.945Z" fill="#7F2D2D" stroke="#7F2D2D" stroke-width="2"/>
<path d="M12.074 28.415C12.0372 28.415 12.0018 28.4296 11.9758 28.4557C11.9497 28.4817 11.9351 28.517 11.9351 28.5539V31.2983C11.9351 31.4457 11.9443 31.6319 11.962 31.8592C11.9695 31.9551 11.977 32.0085 11.9845 32.0876C11.8751 31.9632 11.7761 31.8311 11.6403 31.7266C11.4207 31.5533 11.1609 31.4168 10.8637 31.3167C10.5613 31.2149 10.2137 31.1656 9.82112 31.1656C8.88809 31.1656 8.11902 31.4855 7.55062 32.1182C6.97749 32.7519 6.70056 33.6796 6.70056 34.8802C6.70056 36.0681 6.97075 36.9857 7.53082 37.6113C7.53073 37.6112 7.53091 37.6114 7.53082 37.6113C8.09132 38.2323 8.8608 38.5449 9.8016 38.5449C10.2027 38.5449 10.5545 38.4958 10.8573 38.3939C10.8577 38.3938 10.858 38.3937 10.8584 38.3936C11.1598 38.2892 11.4218 38.1487 11.6415 37.971C11.7945 37.8496 11.9056 37.7041 12.0223 37.5622L12.1473 38.3043C12.1528 38.3367 12.1695 38.3661 12.1946 38.3873C12.2197 38.4085 12.2515 38.4202 12.2843 38.4202H13.1645C13.2013 38.4202 13.2366 38.4055 13.2627 38.3795C13.2887 38.3534 13.3034 38.3181 13.3034 38.2813V28.5539C13.3034 28.5171 13.2887 28.4817 13.2627 28.4557C13.2366 28.4297 13.2013 28.415 13.1645 28.415L12.074 28.415ZM16.1887 28.7277C15.9728 28.7277 15.7764 28.7965 15.624 28.9314C15.4643 29.0725 15.3931 29.2903 15.3931 29.548C15.3931 29.8019 15.4648 30.0185 15.6221 30.1629C15.6226 30.1634 15.6231 30.1639 15.6237 30.1645C15.7761 30.2995 15.9727 30.3684 16.1887 30.3684C16.3967 30.3684 16.5882 30.2986 16.7393 30.1653C16.9055 30.0224 16.9845 29.8034 16.9845 29.5479C16.9845 29.2892 16.9059 29.0693 16.7379 28.9298C16.587 28.7971 16.3961 28.7277 16.1887 28.7277ZM37.9577 31.0251C37.365 31.0251 36.8526 31.1192 36.423 31.3127C35.9942 31.5057 35.6585 31.7923 35.4292 32.1662C35.1991 32.5372 35.0866 32.9839 35.0866 33.4958C35.0866 33.9816 35.21 34.418 35.4576 34.7915C35.458 34.7921 35.4584 34.7926 35.4587 34.7931C35.6615 35.0898 35.9301 35.3017 36.2331 35.4615C36.0182 35.6053 35.8334 35.7545 35.7069 35.9174C35.7067 35.9175 35.7071 35.9173 35.7069 35.9174C35.5442 36.1286 35.4609 36.3822 35.4609 36.659C35.4609 36.9037 35.5382 37.1303 35.6876 37.32C35.6881 37.3205 35.6886 37.3211 35.689 37.3216C35.768 37.4186 35.8575 37.5017 35.954 37.5739C35.5705 37.693 35.2328 37.8609 34.9868 38.1199C34.9865 38.1201 34.9862 38.1204 34.986 38.1207C34.6791 38.4487 34.5216 38.8558 34.5216 39.3158C34.5216 39.959 34.8085 40.4839 35.3524 40.8383C35.3523 40.8382 35.3526 40.8384 35.3524 40.8383C35.8975 41.1971 36.6543 41.3675 37.6161 41.3675C38.8574 41.3675 39.8193 41.1654 40.5007 40.7404C41.1819 40.3155 41.5379 39.6764 41.5379 38.8783C41.5379 38.246 41.3065 37.7361 40.8523 37.3982C40.4028 37.0607 39.771 36.9015 38.969 36.9015H37.7012C37.4811 36.9015 37.2957 36.8852 37.1465 36.8546C37.0021 36.8209 36.9015 36.7705 36.8376 36.7133C36.7833 36.6612 36.7565 36.6004 36.7565 36.4966C36.7565 36.3462 36.7992 36.2234 36.8897 36.1092C36.9825 35.9974 37.1284 35.8895 37.3139 35.7884C37.5094 35.8165 37.7027 35.8353 37.8919 35.8353C38.7632 35.8353 39.4665 35.6286 39.9831 35.2033C39.9829 35.2034 39.9833 35.2032 39.9831 35.2033C40.4987 34.7744 40.7629 34.181 40.7629 33.4646C40.7629 33.1709 40.7167 32.8991 40.6224 32.6523C40.56 32.489 40.47 32.3617 40.3848 32.228L41.5072 32.0957C41.541 32.0917 41.5721 32.0755 41.5947 32.0501C41.6173 32.0247 41.6298 31.9919 41.6298 31.9579V31.2891C41.6298 31.2522 41.6152 31.2169 41.5891 31.1909C41.5631 31.1648 41.5278 31.1502 41.4909 31.1502H39.0343C38.9451 31.126 38.8471 31.1054 38.7349 31.0894C38.6118 31.0678 38.4825 31.053 38.3476 31.0444C38.2178 31.0318 38.0877 31.0251 37.9577 31.0251ZM22.0397 31.0501C21.5643 31.0501 21.1099 31.1079 20.6773 31.2237C20.2498 31.3381 19.8693 31.4764 19.5357 31.6395C19.5038 31.6551 19.4791 31.6824 19.4666 31.7157C19.4542 31.749 19.4551 31.7858 19.469 31.8185L19.8037 32.6062C19.8109 32.6233 19.8216 32.6388 19.8349 32.6518C19.8483 32.6647 19.8641 32.6748 19.8815 32.6815C19.8988 32.6882 19.9174 32.6914 19.936 32.6908C19.9546 32.6902 19.9728 32.6859 19.9897 32.6781C20.2902 32.5392 20.6082 32.4184 20.944 32.316C21.2718 32.216 21.6169 32.1657 21.9807 32.1657C22.4441 32.1657 22.7823 32.2771 23.0182 32.4869C23.2424 32.6863 23.3721 33.0562 23.3721 33.6272V33.9125L22.2641 33.9573C21.0864 33.9911 20.1973 34.1903 19.5938 34.5792C18.9916 34.9672 18.6762 35.5494 18.6762 36.2715C18.6762 36.7454 18.7772 37.1494 18.9876 37.4725C18.9879 37.473 18.9881 37.4734 18.9884 37.4739C19.1999 37.7915 19.4909 38.0315 19.8504 38.187C19.8502 38.1869 19.8506 38.1871 19.8504 38.187C20.2117 38.3413 20.6213 38.417 21.0746 38.417C21.4998 38.417 21.8623 38.375 22.1644 38.2866C22.1647 38.2865 22.1651 38.2864 22.1655 38.2863C22.4686 38.1945 22.7383 38.0599 22.9713 37.8824C22.9718 37.882 22.9723 37.8817 22.9727 37.8813C23.1492 37.7436 23.3136 37.5614 23.4772 37.3765L23.6446 38.1816C23.6511 38.2128 23.6681 38.2409 23.6929 38.261C23.7176 38.2812 23.7486 38.2922 23.7805 38.2922H24.5752C24.612 38.2922 24.6473 38.2776 24.6734 38.2516C24.6994 38.2255 24.7141 38.1902 24.7141 38.1534V33.496C24.7141 32.6677 24.497 32.0354 24.0433 31.6353C23.5918 31.2372 22.9177 31.0501 22.0397 31.0501ZM30.4136 31.1657C30.0772 31.1657 29.7551 31.2115 29.4485 31.3029C29.1418 31.3902 28.8623 31.5216 28.6131 31.6973C28.4318 31.8221 28.2807 31.9778 28.1449 32.147L28.0221 31.4071C28.0167 31.3746 27.9999 31.3452 27.9749 31.3239C27.9498 31.3027 27.918 31.291 27.8851 31.291H27.0049C26.9681 31.291 26.9328 31.3056 26.9067 31.3317C26.8807 31.3577 26.866 31.393 26.866 31.4298V38.2813C26.866 38.3182 26.8807 38.3535 26.9067 38.3795C26.9328 38.4056 26.9681 38.4202 27.0049 38.4202H28.0953C28.1321 38.4202 28.1675 38.4056 28.1935 38.3795C28.2195 38.3535 28.2342 38.3182 28.2342 38.2813V34.6928C28.2342 33.8943 28.3936 33.3029 28.692 32.9075C28.9831 32.522 29.4906 32.3187 30.2625 32.3187C30.8041 32.3187 31.1785 32.4522 31.4166 32.7009C31.4169 32.7011 31.4172 32.7014 31.4175 32.7017C31.6608 32.9517 31.792 33.3379 31.792 33.8865V38.2814C31.7921 38.3182 31.8067 38.3535 31.8327 38.3796C31.8588 38.4056 31.8941 38.4203 31.9309 38.4203H33.008C33.0448 38.4203 33.0802 38.4056 33.1062 38.3796C33.1323 38.3535 33.1469 38.3182 33.1469 38.2814V33.8179C33.1469 32.9159 32.9203 32.2326 32.4449 31.8023C31.9739 31.3721 31.2889 31.1657 30.4136 31.1657ZM45.9426 31.1787C45.2364 31.1787 44.6178 31.3226 44.0949 31.6151C43.5765 31.9034 43.1742 32.3288 42.896 32.8802C42.6169 33.4291 42.4804 34.0891 42.4804 34.8556C42.4804 35.4311 42.5609 35.9496 42.7248 36.409C42.7249 36.4094 42.725 36.4097 42.7251 36.4101C42.8927 36.8672 43.1282 37.2578 43.4314 37.577C43.4312 37.5768 43.4316 37.5772 43.4314 37.577C43.738 37.8949 44.1019 38.1406 44.5175 38.3102C44.518 38.3104 44.5185 38.3107 44.5191 38.311C44.9394 38.4762 45.3998 38.5581 45.8967 38.5581C46.4275 38.5581 46.9072 38.4765 47.3329 38.311C47.3327 38.3111 47.333 38.3109 47.3329 38.311C47.7617 38.1416 48.1307 37.8961 48.4338 37.577C48.7374 37.2573 48.969 36.8659 49.1279 36.408C49.2872 35.9489 49.3652 35.4309 49.3652 34.8557C49.3652 34.0926 49.224 33.4337 48.9356 32.8846C48.6531 32.3344 48.2493 31.9076 47.7318 31.6155C47.2183 31.3232 46.619 31.1787 45.9426 31.1787ZM15.6306 31.291C15.5938 31.291 15.5584 31.3056 15.5324 31.3316C15.5063 31.3577 15.4917 31.393 15.4917 31.4298V39.3877C15.4917 39.7841 15.4024 40.0259 15.2641 40.145C15.1084 40.2792 14.9053 40.349 14.6322 40.349C14.4636 40.349 14.314 40.337 14.1838 40.3137C14.1824 40.3134 14.1811 40.3132 14.1797 40.3129C14.0464 40.2931 13.9152 40.2636 13.7861 40.2239C13.7654 40.2176 13.7434 40.2162 13.722 40.2199C13.7006 40.2235 13.6804 40.2321 13.6629 40.245C13.6455 40.2579 13.6313 40.2747 13.6215 40.2941C13.6117 40.3135 13.6066 40.3349 13.6066 40.3566V41.2007C13.6066 41.2297 13.6157 41.2579 13.6326 41.2814C13.6495 41.305 13.6733 41.3226 13.7007 41.332C13.8316 41.3765 13.9826 41.4134 14.1537 41.4434C14.3315 41.4789 14.5343 41.4958 14.7637 41.4958C15.2267 41.4958 15.6184 41.414 15.9338 41.2411C16.2467 41.0696 16.4846 40.8156 16.6363 40.4911C16.7871 40.1725 16.8598 39.795 16.8598 39.3628V31.4299C16.8598 31.393 16.8452 31.3577 16.8191 31.3317C16.7931 31.3056 16.7577 31.291 16.7209 31.291L15.6306 31.291ZM37.9186 32.0719C38.4166 32.0719 38.7694 32.1933 39.0041 32.4204C39.0044 32.4207 39.0046 32.421 39.0049 32.4212C39.2383 32.6433 39.3624 32.9824 39.3624 33.4709C39.3624 33.9248 39.242 34.2447 39.0114 34.4642C38.7819 34.6827 38.4305 34.8011 37.9316 34.8011C37.4511 34.8011 37.1032 34.6839 36.8632 34.4629C36.6234 34.242 36.5009 33.9295 36.5009 33.4897C36.5009 33.0055 36.6249 32.6632 36.86 32.432C37.1011 32.1951 37.4442 32.0719 37.9186 32.0719ZM9.97258 32.3062C10.7469 32.3062 11.2394 32.523 11.5111 32.9428C11.5113 32.9431 11.5115 32.9434 11.5116 32.9436C11.7964 33.3773 11.9486 34.0195 11.9486 34.8743V35.0618C11.9486 35.8648 11.7909 36.452 11.4981 36.8338C11.2112 37.2077 10.7182 37.4044 9.97267 37.4044C9.33023 37.4044 8.88157 37.197 8.57497 36.7752C8.27037 36.3495 8.10842 35.7289 8.10842 34.9056C8.10842 34.0777 8.27167 33.44 8.58336 32.9833C8.58327 32.9834 8.58345 32.9831 8.58336 32.9833C8.89189 32.5273 9.33663 32.3062 9.97258 32.3062ZM45.9166 32.3314C46.4048 32.3314 46.7889 32.435 47.0802 32.6325C47.3755 32.8327 47.5929 33.1148 47.7377 33.4926C47.7376 33.4924 47.7378 33.4928 47.7377 33.4926C47.8832 33.8685 47.9585 34.3227 47.9585 34.8556C47.9585 35.3928 47.8833 35.8533 47.7374 36.2381C47.5927 36.6198 47.3733 36.906 47.0734 37.1104C47.0731 37.1105 47.0737 37.1102 47.0734 37.1104C46.7816 37.312 46.402 37.4174 45.9234 37.4174C45.4401 37.4174 45.0589 37.3124 44.7674 37.1109C44.4718 36.9066 44.254 36.6202 44.1091 36.2381C43.9632 35.8534 43.8883 35.3928 43.8883 34.8556C43.8883 34.0417 44.0574 33.4213 44.3798 32.9819C44.3799 32.9817 44.3802 32.9812 44.3803 32.981C44.7024 32.5486 45.1974 32.3314 45.9166 32.3314ZM23.3586 34.9217V35.4089C23.3586 36.0561 23.1701 36.5124 22.7979 36.821C22.4182 37.1357 21.9318 37.2954 21.3169 37.2954C20.9264 37.2954 20.6288 37.2075 20.4086 37.042C20.1961 36.8824 20.0896 36.6462 20.0896 36.2839C20.0896 35.8716 20.2445 35.5796 20.5797 35.3555C20.9065 35.137 21.52 34.9929 22.4057 34.96C22.4056 34.96 22.4058 34.96 22.4057 34.96L23.3586 34.9217ZM37.3466 38.1481H38.5946C38.9561 38.1481 39.2587 38.1733 39.5003 38.2208C39.501 38.2209 39.5017 38.221 39.5024 38.2211C39.7362 38.2633 39.8982 38.3445 40.004 38.4549C40.1044 38.5638 40.1632 38.732 40.1632 38.9844C40.1632 39.2495 40.0801 39.464 39.905 39.653C39.9042 39.6537 39.9035 39.6544 39.9028 39.6552C39.7334 39.8456 39.4654 39.9999 39.0882 40.1076C39.0877 40.1078 39.0872 40.108 39.0866 40.1081C38.7156 40.2193 38.2352 40.2774 37.6488 40.2774C37.0552 40.2774 36.6103 40.1795 36.3143 40.0029C36.314 40.0027 36.3136 40.0025 36.3132 40.0024C36.0185 39.8303 35.8896 39.6084 35.8896 39.2784C35.8896 39.0206 35.9469 38.8176 36.0556 38.6567C36.1704 38.4933 36.3311 38.3695 36.5506 38.2822C36.7715 38.1942 37.0363 38.1481 37.3466 38.1481ZM55.4666 89.5101C54.96 89.5101 54.5218 89.5983 54.1565 89.7811C53.7887 89.9651 53.5041 90.2572 53.3129 90.6431C53.1203 91.028 53.0289 91.5163 53.0289 92.1057V92.4558L51.8577 92.7718C51.8282 92.7798 51.8021 92.7972 51.7835 92.8215C51.765 92.8458 51.7549 92.8755 51.7549 92.9061V93.406C51.7549 93.4428 51.7696 93.4781 51.7956 93.5042C51.8217 93.5302 51.857 93.5448 51.8938 93.5448H53.0289V99.4448C53.0289 99.4817 53.0435 99.517 53.0696 99.543C53.0956 99.5691 53.1309 99.5837 53.1678 99.5837H54.2582C54.295 99.5837 54.3303 99.5691 54.3564 99.543C54.3824 99.517 54.397 99.4817 54.397 99.4448V93.5448H56.051C56.0879 93.5448 56.1232 93.5302 56.1492 93.5042C56.1753 93.4781 56.1899 93.4428 56.1899 93.406V92.5933C56.1899 92.5565 56.1753 92.5212 56.1492 92.4951C56.1232 92.4691 56.0879 92.4545 56.051 92.4545H54.397V92.0932C54.397 91.5641 54.4957 91.1943 54.6631 90.9781C54.836 90.7565 55.0928 90.6442 55.4798 90.6442C55.6625 90.6442 55.8402 90.6637 56.0139 90.703C56.0151 90.7033 56.0162 90.7036 56.0174 90.7039C56.2019 90.7406 56.366 90.7815 56.5094 90.8257C56.5439 90.8363 56.5811 90.8331 56.6132 90.8168C56.6454 90.8005 56.6699 90.7724 56.6817 90.7383L56.964 89.9192C56.97 89.9018 56.9725 89.8835 56.9713 89.8652C56.9701 89.8469 56.9653 89.829 56.9572 89.8126C56.9491 89.7961 56.9378 89.7814 56.924 89.7694C56.9102 89.7573 56.8941 89.7481 56.8767 89.7423C56.6947 89.6817 56.4857 89.6282 56.2493 89.5815C56.011 89.5335 55.7501 89.5101 55.4666 89.5101ZM116.574 89.5788C116.537 89.5788 116.501 89.5934 116.475 89.6194C116.449 89.6455 116.435 89.6808 116.435 89.7176V99.4447C116.435 99.4815 116.449 99.5169 116.475 99.5429C116.501 99.5689 116.537 99.5836 116.574 99.5836H117.657C117.694 99.5836 117.73 99.5689 117.756 99.5429C117.782 99.5169 117.796 99.4815 117.796 99.4447V97.0261L118.512 96.4012L120.963 99.5305C120.976 99.5471 120.993 99.5605 121.012 99.5697C121.031 99.5789 121.052 99.5837 121.073 99.5836H122.386C122.412 99.5837 122.438 99.5763 122.46 99.5625C122.482 99.5486 122.5 99.5288 122.511 99.5053C122.523 99.4818 122.527 99.4556 122.524 99.4296C122.522 99.4036 122.511 99.379 122.495 99.3585L119.465 95.5292L122.275 92.691C122.294 92.6715 122.307 92.6468 122.312 92.6199C122.317 92.593 122.315 92.5652 122.304 92.5399C122.294 92.5146 122.276 92.493 122.253 92.4778C122.23 92.4626 122.203 92.4545 122.176 92.4545H120.895C120.877 92.4545 120.859 92.4582 120.842 92.4653C120.825 92.4724 120.809 92.4829 120.796 92.496L118.406 94.9214C118.405 94.922 118.404 94.9227 118.404 94.9233C118.278 95.0555 118.125 95.2281 117.945 95.4419C117.945 95.4424 117.944 95.4428 117.944 95.4433C117.864 95.5401 117.824 95.5869 117.762 95.6619C117.767 95.5694 117.77 95.4918 117.776 95.3891C117.776 95.389 117.776 95.3892 117.776 95.3891C117.789 95.1457 117.796 94.9391 117.796 94.7687V89.7177C117.796 89.6809 117.781 89.6456 117.755 89.6196C117.729 89.5935 117.694 89.5789 117.657 89.5789L116.574 89.5788ZM86.6566 92.2013C85.992 92.2013 85.4037 92.3532 84.9028 92.6595C84.9026 92.6596 84.903 92.6594 84.9028 92.6595C84.407 92.9653 84.0195 93.4052 83.7467 93.9676C83.7467 93.9676 83.7467 93.9677 83.7467 93.9676C83.4777 94.5276 83.3453 95.187 83.3453 95.9409C83.3453 96.7127 83.4912 97.3747 83.7893 97.9204C84.0859 98.4632 84.5062 98.8815 85.0416 99.1646C85.042 99.1648 85.0424 99.165 85.0427 99.1652C85.5819 99.4435 86.2095 99.5807 86.9191 99.5807C87.4118 99.5807 87.8406 99.5452 88.2072 99.4719C88.5763 99.3991 88.9467 99.2835 89.3182 99.1258C89.3434 99.1152 89.3648 99.0974 89.3798 99.0746C89.3949 99.0518 89.4029 99.0251 89.4029 98.9978V98.0854C89.4029 98.0626 89.3973 98.0402 89.3865 98.02C89.3758 97.9999 89.3603 97.9828 89.3414 97.9701C89.3225 97.9574 89.3007 97.9495 89.278 97.9472C89.2554 97.9449 89.2325 97.9482 89.2114 97.9568C88.8411 98.1084 88.4848 98.2227 88.143 98.2999C87.8053 98.3763 87.4126 98.4152 86.9653 98.4152C86.2516 98.4152 85.7224 98.2168 85.3444 97.8261C84.9917 97.4615 84.7992 96.9295 84.7645 96.2236H89.5857C89.6225 96.2236 89.6578 96.2089 89.6839 96.1829C89.7099 96.1569 89.7245 96.1215 89.7245 96.0847V95.4408C89.7245 94.8025 89.6051 94.238 89.3619 93.7532C89.1189 93.2644 88.7634 92.8798 88.3033 92.6084C87.841 92.3356 87.2891 92.2013 86.6566 92.2013ZM105.456 92.2013C104.749 92.2013 104.131 92.3453 103.608 92.6378C103.089 92.926 102.687 93.3515 102.409 93.9029C102.13 94.4518 101.993 95.1121 101.993 95.8786C101.993 96.4542 102.074 96.9726 102.238 97.432C102.238 97.4323 102.238 97.4327 102.238 97.4331C102.406 97.8902 102.641 98.2805 102.944 98.5997C102.945 98.5999 102.945 98.6002 102.945 98.6005C103.252 98.9185 103.615 99.1634 104.03 99.3328C104.031 99.333 104.032 99.3332 104.032 99.3334C104.453 99.4987 104.913 99.5808 105.41 99.5808C105.941 99.5808 106.42 99.4992 106.846 99.3337C106.846 99.3338 106.846 99.3336 106.846 99.3337C107.275 99.1643 107.644 98.9189 107.947 98.5997C108.251 98.28 108.482 97.8886 108.641 97.4307C108.8 96.9717 108.879 96.4539 108.879 95.8787C108.879 95.1156 108.737 94.4567 108.449 93.9076C108.166 93.3574 107.763 92.9306 107.245 92.6385C106.732 92.3462 106.132 92.2013 105.456 92.2013ZM66.3586 92.2138C65.8832 92.2138 65.4286 92.2716 64.9959 92.3874C64.5684 92.5019 64.1879 92.6399 63.8543 92.803C63.8223 92.8186 63.7976 92.8459 63.7851 92.8793C63.7727 92.9127 63.7736 92.9495 63.7876 92.9822L64.1225 93.7699C64.1298 93.787 64.1405 93.8025 64.1539 93.8154C64.1672 93.8283 64.1831 93.8384 64.2004 93.8451C64.2178 93.8518 64.2363 93.8549 64.2549 93.8543C64.2735 93.8537 64.2917 93.8493 64.3086 93.8415C64.6091 93.7026 64.9268 93.5819 65.2626 93.4794C65.5904 93.3794 65.9357 93.3292 66.2994 93.3292C66.7629 93.3292 67.1011 93.4408 67.3369 93.6506C67.5612 93.8501 67.6909 94.22 67.6909 94.7909V95.0762L66.5826 95.121L66.5842 95.1207C65.4056 95.1544 64.5161 95.3539 63.9122 95.7429C63.31 96.131 62.9946 96.7129 62.9946 97.4349C62.9946 97.9089 63.0959 98.3129 63.3063 98.6359C63.3065 98.6364 63.3068 98.6369 63.3071 98.6373C63.5186 98.9549 63.8093 99.1949 64.1688 99.3504C64.1686 99.3503 64.169 99.3505 64.1688 99.3504C64.5301 99.5047 64.9397 99.5807 65.393 99.5807C65.8182 99.5807 66.1807 99.5385 66.4828 99.45C66.4831 99.4499 66.4835 99.4498 66.4839 99.4497C66.787 99.3579 67.0567 99.2233 67.2897 99.0458C67.2902 99.0455 67.2907 99.0453 67.2911 99.045C67.4677 98.9072 67.6322 98.7247 67.7959 98.5397L67.963 99.345C67.9695 99.3762 67.9865 99.4043 68.0113 99.4245C68.036 99.4446 68.067 99.4556 68.0989 99.4557H68.8936C68.9304 99.4556 68.9658 99.441 68.9918 99.415C69.0178 99.3889 69.0325 99.3536 69.0325 99.3168V94.6594C69.0325 93.8311 68.8155 93.1988 68.3617 92.7987C67.9102 92.4006 67.2366 92.2138 66.3586 92.2138ZM61.1964 92.3294C60.8379 92.3294 60.5066 92.3954 60.2072 92.529C60.207 92.5291 60.2074 92.5289 60.2072 92.529C59.917 92.6605 59.6589 92.8394 59.4371 93.0634C59.437 93.0635 59.4373 93.0632 59.4371 93.0634C59.2906 93.2087 59.1789 93.3814 59.0609 93.5483L58.9703 92.5803C58.9671 92.5459 58.9511 92.5139 58.9255 92.4906C58.8999 92.4673 58.8666 92.4544 58.832 92.4544H57.9258C57.889 92.4544 57.8536 92.4691 57.8276 92.4951C57.8015 92.5212 57.7869 92.5565 57.7869 92.5933V99.4448C57.7869 99.4816 57.8015 99.517 57.8276 99.543C57.8536 99.569 57.889 99.5837 57.9258 99.5837H59.0224C59.0592 99.5837 59.0945 99.569 59.1206 99.543C59.1466 99.517 59.1612 99.4816 59.1612 99.4448V95.769C59.1612 95.4291 59.2139 95.1256 59.3167 94.8558C59.3167 94.8556 59.3167 94.8559 59.3167 94.8558C59.4205 94.5791 59.5619 94.3473 59.7409 94.1576C59.7413 94.1572 59.7416 94.1568 59.742 94.1565C59.9222 93.9616 60.1281 93.8156 60.3642 93.7149C60.3639 93.715 60.3645 93.7148 60.3642 93.7149C60.6052 93.6099 60.8598 93.5573 61.1307 93.5573C61.2516 93.5573 61.3822 93.5653 61.5221 93.5814C61.6618 93.5975 61.7872 93.6196 61.8986 93.6471C61.9175 93.6517 61.9371 93.6524 61.9562 93.649C61.9754 93.6456 61.9936 93.6383 62.0097 93.6274C62.0258 93.6165 62.0394 93.6024 62.0497 93.5859C62.06 93.5695 62.0668 93.551 62.0695 93.5318L62.2076 92.5692C62.2126 92.5341 62.2041 92.4984 62.1836 92.4694C62.1632 92.4404 62.1325 92.4203 62.0977 92.4132C61.9684 92.3868 61.823 92.3675 61.6613 92.3546C61.5005 92.3378 61.3449 92.3294 61.1964 92.3294ZM74.4684 92.3294C74.1493 92.3294 73.8461 92.3727 73.5605 92.4604C73.2749 92.5481 73.0148 92.6783 72.7829 92.8504C72.6182 92.9727 72.4803 93.1225 72.3552 93.2847L72.2342 92.57C72.2287 92.5376 72.2119 92.5083 72.1868 92.4872C72.1618 92.466 72.13 92.4544 72.0972 92.4544H71.2173C71.1805 92.4544 71.1452 92.4691 71.1191 92.4951C71.0931 92.5211 71.0785 92.5565 71.0784 92.5933V99.4448C71.0785 99.4816 71.0931 99.5169 71.1191 99.543C71.1452 99.569 71.1805 99.5837 71.2173 99.5837H72.3074C72.3442 99.5837 72.3796 99.569 72.4056 99.543C72.4316 99.5169 72.4463 99.4816 72.4463 99.4448V95.8189C72.4463 95.2926 72.5089 94.8556 72.6288 94.5088C72.6288 94.5089 72.6289 94.5087 72.6288 94.5088C72.7519 94.1616 72.9424 93.911 73.2041 93.7412C73.4638 93.5726 73.8186 93.4824 74.2777 93.4824C74.5977 93.4824 74.851 93.5419 75.0432 93.6517C75.044 93.6521 75.0449 93.6526 75.0459 93.6531C75.2428 93.7597 75.3855 93.9159 75.4842 94.1375C75.4844 94.1381 75.4847 94.1388 75.485 94.1394C75.5877 94.3611 75.6431 94.6496 75.6431 95.0063V99.4448C75.6431 99.4816 75.6578 99.5169 75.6838 99.543C75.7098 99.569 75.7452 99.5836 75.782 99.5836H76.8656C76.9024 99.5836 76.9377 99.569 76.9638 99.543C76.9898 99.5169 77.0045 99.4816 77.0045 99.4448V95.6125C77.0045 94.886 77.1583 94.356 77.4455 94.0068C77.7289 93.6621 78.1849 93.4825 78.8557 93.4825C79.3244 93.4825 79.6493 93.6096 79.8685 93.8549C79.869 93.8554 79.8696 93.856 79.8701 93.8565C80.0925 94.0974 80.2143 94.4732 80.2143 95.0063V99.4448C80.2143 99.4816 80.2289 99.5169 80.255 99.543C80.281 99.569 80.3163 99.5836 80.3532 99.5837H81.4303C81.4671 99.5836 81.5024 99.569 81.5285 99.543C81.5545 99.5169 81.5691 99.4816 81.5691 99.4448V94.9563C81.5691 94.0642 81.3626 93.3906 80.9233 92.963C80.488 92.5353 79.8485 92.3294 79.033 92.3294C78.5246 92.3294 78.0521 92.4314 77.6215 92.6361C77.6214 92.6362 77.6217 92.636 77.6215 92.6361C77.6214 92.6362 77.6206 92.6365 77.6205 92.6367C77.234 92.8169 76.929 93.0993 76.6882 93.4499C76.5073 93.1026 76.2538 92.8187 75.9049 92.6389C75.5121 92.4301 75.0316 92.3294 74.4684 92.3294ZM113.82 92.3294C113.462 92.3294 113.131 92.3954 112.831 92.529C112.831 92.5291 112.831 92.5289 112.831 92.529C112.541 92.6605 112.283 92.8394 112.061 93.0634C112.061 93.0635 112.061 93.0632 112.061 93.0634C111.915 93.2086 111.803 93.3812 111.685 93.5481L111.594 92.5803C111.591 92.5459 111.575 92.5139 111.549 92.4906C111.524 92.4673 111.491 92.4544 111.456 92.4544H110.549C110.513 92.4544 110.477 92.4691 110.451 92.4951C110.425 92.5212 110.411 92.5565 110.411 92.5933V99.4448C110.411 99.4816 110.425 99.517 110.451 99.543C110.477 99.569 110.513 99.5837 110.549 99.5837H111.646C111.683 99.5837 111.719 99.569 111.745 99.543C111.771 99.517 111.785 99.4816 111.785 99.4448V95.769C111.785 95.4291 111.838 95.1256 111.941 94.8558C111.941 94.8556 111.941 94.8559 111.941 94.8558C112.045 94.5791 112.186 94.3473 112.365 94.1576C112.365 94.1572 112.365 94.1568 112.366 94.1565C112.546 93.9616 112.752 93.8156 112.988 93.7149C112.988 93.715 112.988 93.7148 112.988 93.7149C113.229 93.6099 113.484 93.5573 113.755 93.5573C113.876 93.5573 114.006 93.5653 114.146 93.5814C114.285 93.5975 114.411 93.6196 114.523 93.6471C114.541 93.6517 114.561 93.6524 114.58 93.649C114.599 93.6456 114.617 93.6383 114.634 93.6274C114.65 93.6165 114.663 93.6024 114.674 93.5859C114.684 93.5695 114.691 93.551 114.693 93.5318L114.831 92.5692C114.837 92.5341 114.828 92.4984 114.808 92.4694C114.787 92.4404 114.756 92.4203 114.722 92.4132C114.592 92.3868 114.447 92.3675 114.285 92.3546C114.124 92.3378 113.969 92.3294 113.82 92.3294ZM90.8744 92.4547C90.8529 92.4547 90.8316 92.4597 90.8124 92.4693C90.7931 92.4789 90.7763 92.4929 90.7634 92.5101C90.7505 92.5273 90.7417 92.5473 90.7378 92.5684C90.7339 92.5896 90.735 92.6114 90.7409 92.6321L92.7245 99.4836C92.7329 99.5125 92.7504 99.5379 92.7745 99.5561C92.7986 99.5742 92.8279 99.5839 92.858 99.5839H94.0862C94.1152 99.5839 94.1435 99.5748 94.1671 99.5579C94.1907 99.541 94.2084 99.5171 94.2177 99.4895L95.5568 95.5224C95.619 95.3492 95.6747 95.1769 95.7237 95.0076C95.7237 95.0072 95.7238 95.0069 95.7239 95.0065C95.772 94.8359 95.8157 94.6738 95.8552 94.5194L95.856 94.5159C95.8856 94.4118 95.908 94.3208 95.9317 94.2275C95.9564 94.3205 95.9806 94.4111 96.0074 94.5159C96.0078 94.5174 96.0083 94.519 96.0088 94.5205C96.0526 94.6705 96.0985 94.8286 96.1466 94.9951C96.147 94.9965 96.1475 94.9979 96.148 94.9992C96.2006 95.1622 96.2553 95.3292 96.3124 95.5005L97.5929 99.4877C97.6019 99.5156 97.6195 99.54 97.6432 99.5573C97.667 99.5746 97.6956 99.584 97.7249 99.584H98.9924C99.0225 99.584 99.0518 99.5743 99.0759 99.5562C99.0999 99.5382 99.1175 99.5128 99.1259 99.4839L101.116 92.6324C101.122 92.6117 101.123 92.5899 101.119 92.5687C101.115 92.5475 101.107 92.5274 101.094 92.5102C101.081 92.493 101.064 92.479 101.045 92.4694C101.025 92.4597 101.004 92.4547 100.983 92.4547H99.8726C99.8423 92.4548 99.8128 92.4647 99.7887 92.4831C99.7645 92.5014 99.747 92.5272 99.7389 92.5564L98.6881 96.3385C98.688 96.3388 98.6882 96.3383 98.6881 96.3385C98.618 96.5972 98.5497 96.8527 98.4839 97.1032C98.4837 97.1039 98.4835 97.1047 98.4833 97.1054C98.4239 97.348 98.371 97.5689 98.3238 97.7726C98.2714 97.5691 98.2128 97.3596 98.1475 97.1442L98.1467 97.1418C98.0852 96.9245 98.0214 96.7154 97.9555 96.5144L96.6747 92.5508C96.6656 92.5229 96.648 92.4986 96.6243 92.4813C96.6005 92.4641 96.5719 92.4548 96.5426 92.4548H95.3671C95.338 92.4547 95.3095 92.4639 95.2859 92.4809C95.2622 92.498 95.2445 92.522 95.2353 92.5497L93.9087 96.5193C93.9087 96.5192 93.9087 96.5194 93.9087 96.5193C93.8599 96.667 93.8111 96.8252 93.7625 96.9934C93.714 97.157 93.6677 97.3227 93.6236 97.4906C93.6233 97.4915 93.6231 97.4924 93.6228 97.4933C93.5955 97.6059 93.5709 97.7091 93.5458 97.8136C93.5427 97.7998 93.5419 97.7907 93.5387 97.7767C93.4945 97.5583 93.4395 97.328 93.3738 97.0859L93.3729 97.0832C93.3116 96.8371 93.2461 96.5891 93.176 96.3389L92.1382 92.5568C92.1302 92.5274 92.1127 92.5016 92.0885 92.4831C92.0643 92.4647 92.0347 92.4547 92.0043 92.4548L90.8744 92.4547ZM86.6436 93.3292C87.0355 93.3292 87.3431 93.4122 87.578 93.5687C87.5785 93.5689 87.5789 93.5692 87.5794 93.5695C87.8183 93.7248 87.9936 93.9408 88.1113 94.2305C88.1116 94.2312 88.1118 94.232 88.1121 94.2327C88.2193 94.4844 88.2742 94.7828 88.2914 95.1145H84.8079C84.8877 94.5699 85.061 94.1347 85.3517 93.8299C85.6708 93.4955 86.09 93.3292 86.6436 93.3292ZM105.43 93.3544C105.918 93.3544 106.302 93.4579 106.593 93.6555C106.888 93.8557 107.106 94.1378 107.25 94.5156C107.25 94.5155 107.25 94.5157 107.25 94.5156C107.396 94.8915 107.471 95.3456 107.471 95.8785C107.471 96.4158 107.396 96.876 107.25 97.2607C107.105 97.6425 106.886 97.9284 106.586 98.1328C106.586 98.133 106.586 98.1331 106.585 98.1333C106.293 98.335 105.915 98.4404 105.436 98.4404C104.953 98.4404 104.572 98.3349 104.28 98.1333C103.985 97.9291 103.767 97.6429 103.622 97.2607C103.476 96.876 103.401 96.4158 103.401 95.8786C103.401 95.0647 103.57 94.4443 103.892 94.0049C103.893 94.0047 103.893 94.0042 103.893 94.004C104.215 93.5716 104.71 93.3544 105.43 93.3544ZM67.6786 96.0855V96.5724C67.6786 97.2196 67.4901 97.6759 67.1179 97.9845C66.7382 98.2992 66.2518 98.4589 65.6369 98.4589C65.2464 98.4589 64.9491 98.371 64.7288 98.2055C64.5164 98.0459 64.4096 97.8099 64.4096 97.4477C64.4096 97.0354 64.5645 96.7431 64.8997 96.519C65.2265 96.3005 65.84 96.1567 66.7257 96.1238C66.7256 96.1238 66.7258 96.1237 66.7257 96.1238L67.6786 96.0855Z" fill="white"/>
</svg>
